# xmcd
#
# Track frame offsets: 
#        150
#        17703
#        32327
#        49602
#        62847
#        84830
#        96957
#        125310
#        143062
#        164089
#        183126
#        202549
#        225831
#
# Disc length: 3273 seconds
#
# Revision: 0
# Processed by: cddbd v1.5.2PL0 Copyright (c) Steve Scherf et al.
# Submitted via: ExactAudioCopy v0.90b4
#
DISCID=920cc70d
DTITLE=Marvin Gaye - Playlist Plus [CD3]
DYEAR=2008
DGENRE=Soul
TTITLE0=What's Going On
TTITLE1=Mercy Mercy Me (the ecology)
TTITLE2=Trouble Man
TTITLE3=My Mistake (was to love you) (w. Diana Ross)
TTITLE4=Let's Get It On
TTITLE5=Come Get To This
TTITLE6=Distant Lover
TTITLE7=I Want You
TTITLE8=After The Dance
TTITLE9=Got to Give It Up - Pt. I
TTITLE10=A Funky Space Reincarnation - Pt. I
TTITLE11=Ego Tripping Out
TTITLE12=My Last Chance (single version)
EXTD=
EXTT0=
EXTT1=
EXTT2=
EXTT3=
EXTT4=
EXTT5=
EXTT6=
EXTT7=
EXTT8=
EXTT9=
EXTT10=
EXTT11=
EXTT12=
PLAYORDER=
